<?xml version="1.0" encoding="UTF-8" standalone="no"?>
<!DOCTYPE svg PUBLIC "-//W3C//DTD SVG 1.1//EN" "http://www.w3.org/Graphics/SVG/1.1/DTD/svg11.dtd">
<svg width="100%" height="100%" viewBox="0 0 51 50" version="1.1" xmlns="http://www.w3.org/2000/svg" xmlns:xlink="http://www.w3.org/1999/xlink" xml:space="preserve" xmlns:serif="http://www.serif.com/" style="fill-rule:evenodd;clip-rule:evenodd;stroke-linejoin:round;stroke-miterlimit:2;">
    <g transform="matrix(4.166667,0,0,4.166667,0,0)">
        <ellipse cx="6" cy="6" rx="6" ry="6" style="fill:white;"/>
    </g>
    <g id="b" transform="matrix(2.062152,0,0,2.062152,12.627094,12.628129)">
        <path d="M12,7.023L12,4.977C12,4.976 12,4.976 12,4.975C12,4.623 11.711,4.334 11.359,4.334C11.358,4.334 11.358,4.334 11.357,4.334L7.667,4.334L7.667,0.643C7.667,0.642 7.667,0.642 7.667,0.641C7.667,0.289 7.378,-0 7.026,-0C7.025,-0 7.023,-0 7.022,-0L4.977,0C4.976,-0 4.976,-0 4.975,-0C4.623,-0 4.334,0.289 4.334,0.641C4.334,0.642 4.334,0.642 4.334,0.643L4.334,4.333L0.643,4.333C0.642,4.333 0.642,4.333 0.641,4.333C0.289,4.333 -0,4.622 -0,4.974C-0,4.975 -0,4.977 -0,4.978L0,7.024C0,7.38 0.287,7.667 0.643,7.667L4.333,7.667L4.333,11.358C4.333,11.714 4.621,12.001 4.977,12.001L7.023,12.001C7.024,12.001 7.024,12.001 7.025,12.001C7.377,12.001 7.666,11.712 7.666,11.36C7.666,11.359 7.666,11.359 7.666,11.358L7.666,7.668L11.357,7.668C11.358,7.668 11.358,7.668 11.359,7.668C11.711,7.668 12,7.379 12,7.027C12,7.025 12,7.024 12,7.022L12,7.023Z" style="fill:rgb(255,126,27);fill-rule:nonzero;"/>
    </g>
</svg>
